<?xml version="1.0" encoding="UTF-8"?>
<svg width="20px" height="20px" viewBox="0 0 20 20" version="1.1" xmlns="http://www.w3.org/2000/svg" xmlns:xlink="http://www.w3.org/1999/xlink">
    <title>侧导航_资产台账</title>
    <g id="Page-1" stroke="none" stroke-width="1" fill-rule="evenodd">
        <g id="A-01-导航和框架" transform="translate(-16.000000, -158.000000)"  fill-rule="nonzero">
            <g id="左导航" transform="translate(0.000000, 48.000000)">
                <g id="数据分析" transform="translate(0.000000, 96.000000)">
                    <g id="侧导航_资产台账" transform="translate(16.000000, 14.000000)">
                        <rect id="矩形" opacity="0" x="0" y="0" width="20" height="20"></rect>
                        <path d="M18.32585,14.5718445 L18.6057525,15.3572612 C18.6431872,15.4621584 18.6370801,15.577682 18.5887945,15.6780446 C18.5405089,15.7784071 18.4540648,15.8552528 18.3487586,15.8914278 L10.1353695,18.7155945 C10.0476411,18.7457534 9.95235893,18.7457534 9.86463049,18.7155945 L1.65124137,15.8914278 C1.54593515,15.8552528 1.45949109,15.7784071 1.4112055,15.6780446 C1.36291991,15.577682 1.35681285,15.4621584 1.39424754,15.3572612 L1.67415005,14.5718445 C1.75075802,14.356811 1.9860719,14.2434791 2.20188289,14.3176778 L9.86421396,16.9526778 C9.9519424,16.9828367 10.0472245,16.9828367 10.134953,16.9526778 L17.7981171,14.3176778 C18.0139281,14.2434791 18.249242,14.356811 18.32585,14.5718445 L18.32585,14.5718445 Z M18.32585,11.2439278 L18.6057525,12.0297612 C18.6429269,12.1345546 18.6366865,12.2498649 18.58842,12.3500312 C18.5401535,12.4501976 18.4538656,12.526909 18.3487586,12.5630945 L10.1353695,15.3880945 C10.0476411,15.4182534 9.95235893,15.4182534 9.86463049,15.3880945 L1.65124137,12.5630945 C1.54613436,12.526909 1.45984649,12.4501976 1.41158,12.3500312 C1.36331351,12.2498649 1.35707312,12.1345546 1.39424754,12.0297612 L1.67415005,11.2443445 C1.75075802,11.029311 1.9860719,10.9159791 2.20188289,10.9901778 L9.86421396,13.6251778 C9.9519424,13.6553367 10.0472245,13.6553367 10.134953,13.6251778 L17.7981171,10.9897612 C18.0139281,10.9155625 18.249242,11.0288943 18.32585,11.2439278 L18.32585,11.2439278 Z M18.32585,7.91642782 L18.6057525,8.7018445 C18.6430569,8.80668988 18.6368831,8.92210683 18.5886071,9.02237122 C18.5403311,9.12263561 18.4539652,9.19941417 18.3487586,9.2355945 L10.1353695,12.0601778 C10.0476411,12.0903367 9.95235893,12.0903367 9.86463049,12.0601778 L1.65124137,9.2355945 C1.4339662,9.16068011 1.31840305,8.9238796 1.39299798,8.70642782 L1.39424754,8.7018445 L1.67415005,7.91642782 C1.75075802,7.70139432 1.98607191,7.58806246 2.20188289,7.66226116 L9.86421396,10.2972612 C9.9519424,10.32742 10.0472245,10.32742 10.134953,10.2972612 L17.7981171,7.66226116 C18.0139281,7.58806246 18.249242,7.70139432 18.32585,7.91642782 L18.32585,7.91642782 Z M10.2457477,1.29726116 L10.3136408,1.32142782 L18.365836,4.6005945 C18.5147808,4.66101277 18.6156858,4.80176569 18.6251187,4.96226903 C18.6345515,5.12277237 18.5508288,5.2743835 18.4099873,5.3518445 L18.365836,5.37267782 L10.3136408,8.6518445 C10.1353999,8.72469267 9.93743633,8.73352684 9.75341923,8.6768445 L9.6855262,8.6518445 L1.63333093,5.3718445 C1.48461616,5.31132401 1.38391223,5.17068902 1.37448442,5.01036038 C1.3650566,4.85003173 1.44858354,4.69855587 1.58917965,4.62101116 L1.63333093,4.60017782 L9.6855262,1.32142782 C9.86386425,1.24885352 10.0618263,1.2403139 10.2457477,1.29726116 Z M10,2.95392782 L4.09539003,4.9593445 L10,7.01476116 L15.9041935,4.9593445 L10,2.95392782 Z" id="Shape"></path>
                    </g>
                </g>
            </g>
        </g>
    </g>
</svg>