<?xml version="1.0" encoding="UTF-8"?>
<svg width="20px" height="20px" viewBox="0 0 20 20" version="1.1" xmlns="http://www.w3.org/2000/svg" xmlns:xlink="http://www.w3.org/1999/xlink">
    <title>侧导航_系统表盘</title>
    <g id="Page-1" stroke="none" stroke-width="1"  fill-rule="evenodd">
        <g id="A-01-导航和框架" transform="translate(-16.000000, -62.000000)"  fill-rule="nonzero">
            <g id="左导航" transform="translate(0.000000, 48.000000)">
                <g id="侧导航_系统表盘" transform="translate(16.000000, 14.000000)">
                    <rect id="矩形" opacity="0" x="0" y="0" width="20" height="20"></rect>
                    <path d="M18.125,3.1640625 L1.875,3.1640625 C1.52929688,3.1640625 1.25,3.44335938 1.25,3.7890625 L1.25,13.4746094 C1.25,13.8203125 1.52929688,14.0996094 1.875,14.0996094 L9.28125,14.0996094 L9.28125,16.2851562 L10.6875,16.2851562 L10.6875,14.0996094 L18.125,14.0996094 C18.4707031,14.0996094 18.75,13.8203125 18.75,13.4746094 L18.75,3.7890625 C18.75,3.44335938 18.4707031,3.1640625 18.125,3.1640625 Z M17.34375,12.6933594 L2.65625,12.6933594 L2.65625,4.5703125 L17.34375,4.5703125 L17.34375,12.6933594 Z M14.21875,16.2890625 L5.78125,16.2890625 C5.6953125,16.2890625 5.625,16.359375 5.625,16.4453125 L5.625,17.5390625 C5.625,17.625 5.6953125,17.6953125 5.78125,17.6953125 L14.21875,17.6953125 C14.3046875,17.6953125 14.375,17.625 14.375,17.5390625 L14.375,16.4453125 C14.375,16.359375 14.3046875,16.2890625 14.21875,16.2890625 Z M6.234375,10.2304688 L6.89648437,10.8925781 C6.95703125,10.953125 7.05664062,10.953125 7.1171875,10.8925781 L9.21679687,8.79296875 L10.6113281,10.1875 C10.671875,10.2480469 10.7714844,10.2480469 10.8320312,10.1875 L13.7460937,7.2734375 C13.8066406,7.21289062 13.8066406,7.11328125 13.7460937,7.05273438 L13.0839844,6.390625 C13.0234375,6.33007812 12.9238281,6.33007812 12.8632812,6.390625 L10.7226562,8.53125 L9.328125,7.13671875 C9.26757812,7.07617188 9.16796875,7.07617188 9.10742187,7.13671875 L6.234375,10.0097656 C6.2044176,10.0386614 6.18749552,10.078495 6.18749552,10.1201172 C6.18749552,10.1617394 6.2044176,10.201573 6.234375,10.2304688 Z" id="形状"></path>
                </g>
            </g>
        </g>
    </g>
</svg>