<?xml version="1.0" encoding="UTF-8"?>
<svg width="20px" height="20px" viewBox="0 0 20 20" version="1.1" xmlns="http://www.w3.org/2000/svg" xmlns:xlink="http://www.w3.org/1999/xlink">
    <title>菜单收起</title>
    <g id="Page-1" stroke="none" stroke-width="1" fill-rule="evenodd">
        <g id="A-01-导航和框架" transform="translate(-18.000000, -863.000000)" fill-rule="nonzero">
            <g id="左导航" transform="translate(0.000000, 48.000000)">
                <g id="菜单收起" transform="translate(18.000000, 815.000000)">
                    <rect id="矩形" opacity="0" x="0" y="0" width="20" height="20"></rect>
                    <path d="M17.5259587,13.0424259 L7.80575078,13.0424259 C7.33530229,13.0424259 6.95343698,12.6311903 6.95343698,12.1291004 C6.95343698,11.6270105 7.33530229,11.2157749 7.80575078,11.2157749 L17.5259587,11.2157749 C17.9976043,11.2157749 18.3794696,11.6270105 18.3794696,12.1291004 C18.3794696,12.6311903 17.9964072,13.0424259 17.5259587,13.0424259 Z M17.5259587,8.78183419 L7.80575078,8.78183419 C7.33530229,8.78183419 6.95343698,8.37179407 6.95343698,7.86850869 C6.95343698,7.36641876 7.33530229,6.95518319 7.80575078,6.95518319 L17.5259587,6.95518319 C17.9976043,6.95518319 18.3794696,7.36641876 18.3794696,7.86850869 C18.3794696,8.37059862 17.9964072,8.78183419 17.5259587,8.78183419 Z M17.4649082,4.67426035 L2.58054047,4.67426035 C2.0777711,4.67426035 1.63485522,4.29410655 1.62049038,3.79321206 C1.61238065,3.54584741 1.70514381,3.30578675 1.87754419,3.1279856 C2.04994457,2.95018445 2.28721974,2.84986772 2.53505181,2.85000013 L17.4194195,2.85000013 C17.9221889,2.85000013 18.3651048,3.23134952 18.3794696,3.73104855 C18.387911,3.97861679 18.2952953,4.21899075 18.1228583,4.39705505 C17.9504213,4.57511935 17.7129551,4.67559929 17.4649082,4.67545596 L17.4649082,4.67426035 Z M5.87248282,13.0280805 L5.87248282,6.97191952 L1.62049038,10 L5.87248282,13.0280805 C5.87248282,13.0424259 5.87248282,13.0424259 5.87248282,13.0280805 L5.87248282,13.0280805 Z M2.53505181,15.3245441 L17.4194195,15.3245441 C17.9221889,15.3245441 18.3651048,15.7070889 18.3794696,16.2067879 C18.3875793,16.4541526 18.2948162,16.6942133 18.1224158,16.8720144 C17.9500154,17.0498155 17.7127402,17.1501323 17.4649082,17.1499999 L2.58054047,17.1499999 C2.0777711,17.1499999 1.63485522,16.7686505 1.62049038,16.267756 C1.61238065,16.0203913 1.70514381,15.7803307 1.87754419,15.6025295 C2.04994457,15.4247284 2.28721974,15.3244117 2.53505181,15.3245441 Z" id="形状"></path>
                </g>
            </g>
        </g>
    </g>
</svg>