<?xml version="1.0" encoding="UTF-8"?>
<svg width="20px" height="20px" viewBox="0 0 20 20" version="1.1" xmlns="http://www.w3.org/2000/svg" xmlns:xlink="http://www.w3.org/1999/xlink">
    <title>菜单展开</title>
    <g id="Page-1" stroke="none" stroke-width="1"  fill-rule="evenodd">
        <g id="A-01-导航和框架" transform="translate(-339.000000, -863.000000)"  fill-rule="nonzero">
            <g id="左侧导航栏收起" transform="translate(325.000000, 48.000000)">
                <g id="Group-2" transform="translate(0.000000, 798.000000)">
                    <g id="菜单展开" transform="translate(14.000000, 17.000000)">
                        <rect id="矩形" opacity="0" x="0" y="0" width="20" height="20"></rect>
                        <path d="M2.47404127,13.0424259 L12.1942492,13.0424259 C12.6646977,13.0424259 13.046563,12.6311903 13.046563,12.1291004 C13.046563,11.6270105 12.6646977,11.2157749 12.1942492,11.2157749 L2.47404127,11.2157749 C2.00239571,11.2157749 1.6205304,11.6270105 1.6205304,12.1291004 C1.6205304,12.6311903 2.00359278,13.0424259 2.47404127,13.0424259 Z M2.47404127,8.78183419 L12.1942492,8.78183419 C12.6646977,8.78183419 13.046563,8.37179407 13.046563,7.86850869 C13.046563,7.36641876 12.6646977,6.95518319 12.1942492,6.95518319 L2.47404127,6.95518319 C2.00239571,6.95518319 1.6205304,7.36641876 1.6205304,7.86850869 C1.6205304,8.37059862 2.00359278,8.78183419 2.47404127,8.78183419 Z M2.53509184,4.67426035 L17.4194595,4.67426035 C17.9222289,4.67426035 18.3651448,4.29410655 18.3795096,3.79321206 C18.3876193,3.54584741 18.2948562,3.30578675 18.1224558,3.1279856 C17.9500554,2.95018445 17.7127803,2.84986772 17.4649482,2.85 L2.5805805,2.85 C2.07781112,2.85 1.63489524,3.23134952 1.6205304,3.73104855 C1.61208897,3.97861679 1.70470469,4.21899075 1.87714167,4.39705505 C2.02083916,4.54544197 2.20969589,4.63995086 2.41220219,4.66724901 L2.53509184,4.67426035 Z M14.1275172,13.0280805 L14.1275172,6.97191952 L18.3795096,10 L14.1275172,13.0280805 Z M17.4649482,15.3245439 L2.5805805,15.3245439 C2.07781112,15.3245439 1.63489524,15.7070889 1.6205304,16.2067879 C1.61242067,16.4541526 1.70518384,16.6942133 1.87758422,16.8720144 C2.0499846,17.0498155 2.28725976,17.1501323 2.53509184,17.15 L17.4194595,17.15 C17.9222289,17.15 18.3651448,16.7686505 18.3795096,16.267756 C18.3876193,16.0203913 18.2948562,15.7803307 18.1224558,15.6025295 C17.9500554,15.4247284 17.7127803,15.3244117 17.4649482,15.3245439 Z" id="Shape"></path>
                    </g>
                </g>
            </g>
        </g>
    </g>
</svg>