<?xml version="1.0" encoding="UTF-8"?>
<svg width="20px" height="20px" viewBox="0 0 20 20" version="1.1" xmlns="http://www.w3.org/2000/svg" xmlns:xlink="http://www.w3.org/1999/xlink">
    <title>侧导航_报告列表</title>
    <g id="Page-1" stroke="none" stroke-width="1" fill-rule="evenodd">
        <g id="A-01-导航和框架" transform="translate(-16.000000, -254.000000)"  fill-rule="nonzero">
            <g id="左导航" transform="translate(0.000000, 48.000000)">
                <g id="态势总览" transform="translate(0.000000, 192.000000)">
                    <g id="侧导航_报告列表" transform="translate(16.000000, 14.000000)">
                        <rect id="矩形" opacity="0" x="0" y="0" width="20" height="20"></rect>
                        <path d="M16.7832031,6.6640625 L11.4609375,1.34179688 C11.4023438,1.28320312 11.3222656,1.25 11.2402344,1.25 L3.75,1.25 C3.40429688,1.25 3.125,1.52929688 3.125,1.875 L3.125,18.125 C3.125,18.4707031 3.40429688,18.75 3.75,18.75 L16.25,18.75 C16.5957031,18.75 16.875,18.4707031 16.875,18.125 L16.875,6.88476562 C16.875,6.80273438 16.8417969,6.72265625 16.7832031,6.6640625 Z M11.2363281,3.10546875 L14.6289062,6.5 L11.2363281,6.5 L11.2363281,3.10546875 Z M4.53125,17.34375 L4.53125,2.65625 L9.98632812,2.65625 L9.98632812,7.125 C9.98632812,7.47070312 10.265625,7.75 10.6113281,7.75 L15.46875,7.75 L15.46875,17.34375 L4.53125,17.34375 Z M14.5039063,14.7402344 L13.9121094,14.7402344 L13.9121094,11.9746094 C13.9121094,11.8886719 13.8417969,11.8183594 13.7558594,11.8183594 L12.8183594,11.8183594 C12.7324219,11.8183594 12.6621094,11.8886719 12.6621094,11.9746094 L12.6621094,14.7402344 L11.6875,14.7402344 L11.6875,13.3417969 C11.6875,13.2558594 11.6171875,13.1855469 11.53125,13.1855469 L10.59375,13.1855469 C10.5078125,13.1855469 10.4375,13.2558594 10.4375,13.3417969 L10.4375,14.7402344 L9.46289063,14.7402344 L9.46289063,11.1933594 C9.46289063,11.1074219 9.39257813,11.0371094 9.30664063,11.0371094 L8.36914063,11.0371094 C8.28320313,11.0371094 8.21289063,11.1074219 8.21289063,11.1933594 L8.21289063,14.7402344 L7.20703125,14.7402344 L7.20703125,6.57421875 C7.20703125,6.44921875 7.13671875,6.34960938 7.05078125,6.34960938 L6.11328125,6.34960938 C6.02734375,6.34960938 5.95703125,6.44921875 5.95703125,6.57421875 L5.95703125,14.7402344 L5.44335938,14.7402344 C5.35742188,14.7402344 5.28710938,14.8105469 5.28710938,14.8964844 L5.28710938,15.8339844 C5.28710938,15.9199219 5.35742188,15.9902344 5.44335938,15.9902344 L14.5058594,15.9902344 C14.5917969,15.9902344 14.6621094,15.9199219 14.6621094,15.8339844 L14.6621094,14.8964844 C14.6601563,14.8105469 14.5917969,14.7402344 14.5039063,14.7402344 Z" id="形状"></path>
                    </g>
                </g>
            </g>
        </g>
    </g>
</svg>