<?xml version="1.0" encoding="UTF-8"?>
<svg width="20px" height="20px" viewBox="0 0 20 20" version="1.1" xmlns="http://www.w3.org/2000/svg" xmlns:xlink="http://www.w3.org/1999/xlink">
    <title>侧导航_风险列表</title>
    <g id="Page-1" stroke="none" stroke-width="1" fill-rule="evenodd">
        <g id="A-01-导航和框架" transform="translate(-16.000000, -206.000000)"  fill-rule="nonzero">
            <g id="左导航" transform="translate(0.000000, 48.000000)">
                <g id="数据分析" transform="translate(0.000000, 144.000000)">
                    <g id="侧导航_风险列表" transform="translate(16.000000, 14.000000)">
                        <rect id="矩形" opacity="0" x="0" y="0" width="20" height="20"></rect>
                        <path d="M16.0379487,0.84 C16.4979028,0.84 16.8707692,1.21282469 16.8707692,1.67272726 L16.8707692,9.58363637 C16.8707692,9.81358765 16.684336,10 16.454359,10 L15.6215385,10 C15.3915614,10 15.2051282,9.81358765 15.2051282,9.58363637 L15.2051282,2.50545454 L3.54564102,2.50545454 L3.54564102,17.4945455 L8.95897437,17.4945455 C9.06941323,17.4945455 9.17532881,17.5384122 9.25342088,17.6164955 C9.33151295,17.6945789 9.37538462,17.8004826 9.37538462,17.9109091 L9.37538462,18.7436364 C9.37538462,18.9735877 9.1889514,19.16 8.95897437,19.16 L2.71282052,19.16 C2.25286645,19.16 1.88,18.7871753 1.88,18.3272727 L1.88,1.67272726 C1.88,1.21282469 2.25286645,0.84 2.71282052,0.84 L16.0379487,0.84 L16.0379487,0.84 Z M13.9558974,10.8327273 C16.2557313,10.8327273 18.12,12.6967873 18.12,14.9963636 C18.12,17.29594 16.2557313,19.16 13.9558974,19.16 C11.6560636,19.16 9.79179487,17.29594 9.79179487,14.9963636 C9.79179487,12.6967873 11.6560636,10.8327273 13.9558974,10.8327273 Z M15.2904923,12.8841509 L14.7145969,13.9483764 L15.6152923,13.9483764 C15.7647984,13.9482802 15.9028816,14.0283315 15.9770759,14.1581141 C16.0512703,14.2878966 16.0501871,14.447489 15.9742379,14.5762527 L14.2661231,17.4753927 C15.3129217,17.3441946 16.164543,16.5697938 16.3942527,15.5402307 C16.6239624,14.5106675 16.1822667,13.4477746 15.2904923,12.8841509 L15.2904923,12.8841509 Z M13.6873128,12.5123382 C12.6278433,12.6261993 11.7571896,13.399397 11.5190473,14.4379006 C11.280905,15.4764042 11.727689,16.5516398 12.6317128,17.1156546 L13.5203323,15.6071691 L12.7116636,15.6071691 C12.5650214,15.6071712 12.4291878,15.5300494 12.3540551,15.4041309 C12.2789225,15.2782124 12.2755675,15.1220613 12.3452226,14.9930327 L13.68648,12.5123382 L13.6873128,12.5123382 Z M9.37538462,10.8327273 C9.60536165,10.8327273 9.79179487,11.0191396 9.79179487,11.2490909 L9.79179487,12.0818182 C9.79179487,12.1922447 9.7479232,12.2981484 9.66983113,12.3762317 C9.59173906,12.4543151 9.48582348,12.4981818 9.37538462,12.4981818 L6.04410256,12.4981818 C5.93366369,12.4981818 5.82774812,12.4543151 5.74965605,12.3762317 C5.67156398,12.2981484 5.62769231,12.1922447 5.62769231,12.0818182 L5.62769231,11.2490909 C5.62769231,11.0191396 5.81412553,10.8327273 6.04410256,10.8327273 L9.37538462,10.8327273 Z M12.7066667,7.50181818 C12.9366437,7.50181818 13.1230769,7.68823053 13.1230769,7.91818181 L13.1230769,8.75090909 C13.1230769,8.98086037 12.9366437,9.16727272 12.7066667,9.16727272 L6.04410256,9.16727272 C5.81412553,9.16727272 5.62769231,8.98086037 5.62769231,8.75090909 L5.62769231,7.91818181 C5.62769231,7.68823053 5.81412553,7.50181818 6.04410256,7.50181818 L12.7066667,7.50181818 L12.7066667,7.50181818 Z M12.7066667,4.17090908 C12.8171055,4.17090908 12.9230211,4.21477584 13.0011132,4.29285917 C13.0792053,4.3709425 13.1230769,4.47684623 13.1230769,4.58727273 L13.1230769,5.41999999 C13.1230769,5.53042649 13.0792053,5.63633022 13.0011132,5.71441355 C12.9230211,5.79249688 12.8171055,5.83636364 12.7066667,5.83636364 L6.04410256,5.83636364 C5.93366369,5.83636364 5.82774811,5.79249688 5.74965604,5.71441355 C5.67156397,5.63633022 5.62769231,5.53042649 5.62769231,5.41999999 L5.62769231,4.58727273 C5.62769231,4.47684623 5.67156397,4.3709425 5.74965604,4.29285917 C5.82774811,4.21477584 5.93366369,4.17090908 6.04410256,4.17090908 L12.7066667,4.17090908 L12.7066667,4.17090908 Z" id="Shape"></path>
                    </g>
                </g>
            </g>
        </g>
    </g>
</svg>