<?xml version="1.0" encoding="UTF-8"?>
<svg width="20px" height="20px" viewBox="0 0 20 20" version="1.1" xmlns="http://www.w3.org/2000/svg" xmlns:xlink="http://www.w3.org/1999/xlink">
    <title>侧导航_系统管理</title>
    <g id="Page-1" stroke="none" stroke-width="1" fill-rule="evenodd">
        <g id="A-01-导航和框架" transform="translate(-339.000000, -302.000000)"  fill-rule="nonzero">
            <g id="左侧导航栏收起" transform="translate(325.000000, 48.000000)">
                <g id="Group-3" transform="translate(0.000000, 240.000000)">
                    <g id="侧导航_系统管理" transform="translate(14.000000, 14.000000)">
                        <rect id="矩形" opacity="0" x="0" y="0" width="20" height="20"></rect>
                        <path d="M12.7910156,2.94921875 C13.0605469,3.06640625 13.3222656,3.20117188 13.5761719,3.35351562 C13.8496094,3.51757812 14.1152344,3.69921875 14.3671875,3.8984375 C14.2207031,4.36328125 14.1582031,4.85546875 14.1875,5.35351563 C14.2109375,5.75390625 14.2929687,6.15429688 14.4316406,6.54296875 C14.5722656,6.9375 14.7734375,7.32226562 15.0273437,7.68554688 C15.1464844,7.85546875 15.2890625,8.00585938 15.4550781,8.13085938 C15.9980469,8.54492188 16.5898438,8.82226562 17.1992187,8.953125 C17.2441406,9.29882813 17.2675781,9.65039063 17.2675781,10 C17.2675781,10.3652344 17.2421875,10.7285156 17.1953125,11.0859375 C16.5507812,11.2148438 15.9257812,11.5097656 15.3554687,11.9550781 C15.1972656,12.078125 15.0585937,12.2265625 14.9433594,12.3925781 C14.6933594,12.7539062 14.4980469,13.1367188 14.359375,13.53125 C14.2226562,13.9179687 14.1445312,14.3164062 14.1230469,14.7148438 C14.0957031,15.2050781 14.1582031,15.6914062 14.3046875,16.1503906 C14.0625,16.3378906 13.8066406,16.5097656 13.5449219,16.6640625 C13.2988281,16.8085938 13.0449219,16.9375 12.7851562,17.0507812 C12.0683594,16.2226562 11.0332031,15.734375 9.92382812,15.734375 C9.2265625,15.734375 8.54296875,15.9296875 7.94726562,16.296875 C7.63671875,16.4902344 7.35351562,16.7265625 7.109375,17 C6.84179687,16.8769531 6.58203125,16.7382812 6.33007812,16.5820312 C6.05859375,16.4140625 5.796875,16.2265625 5.546875,16.0234375 C5.68164062,15.6171875 5.75195312,15.1875 5.75195312,14.7539062 C5.75195312,14.2324219 5.65234375,13.7246094 5.45898437,13.2441406 C5.26953125,12.7773437 4.99804687,12.359375 4.65234375,11.9980469 C4.30273437,11.6328125 3.89257812,11.3457031 3.43554687,11.1445312 C3.2265625,11.0527344 3.01367187,10.9804687 2.79492187,10.9277344 C2.75976562,10.6191406 2.7421875,10.3085937 2.7421875,9.99609375 C2.7421875,9.62304687 2.76757812,9.25 2.81835937,8.8828125 C3.45898437,8.75585937 4.08203125,8.46679687 4.65039062,8.02734375 C4.81054687,7.90234375 4.95117187,7.75585937 5.06835937,7.5859375 C5.31835937,7.22460937 5.51757812,6.84179687 5.65625,6.44921875 C5.79296875,6.0625 5.875,5.6640625 5.8984375,5.265625 C5.92773437,4.77539062 5.8671875,4.2890625 5.72265625,3.83007812 C5.9453125,3.65820312 6.17773437,3.5 6.41796875,3.35742187 C6.63867187,3.22460937 6.86523437,3.10546875 7.09960937,2.99804687 C7.81640625,3.80078125 8.83789062,4.27539062 9.92578125,4.27539062 C10.6386719,4.27539062 11.3359375,4.07226562 11.9394531,3.6875 C12.2539062,3.48632812 12.5429687,3.23632812 12.7910156,2.94921875 M12.4023437,1.25 C12.2304688,1.25 12.0683594,1.34570313 11.9824219,1.50976563 C11.5859375,2.27539062 10.8105469,2.79492188 9.91796875,2.79492188 C9.04101563,2.79492188 8.27539062,2.29296875 7.87304688,1.546875 C7.78710938,1.38867188 7.62695312,1.29492187 7.45898438,1.29492187 C7.41015625,1.29492187 7.36132813,1.30273438 7.3125,1.31835938 C6.14453125,1.7109375 5.08398438,2.3515625 4.1875,3.18164062 C4.01757813,3.33984375 3.98046875,3.6015625 4.09570313,3.80664062 C4.54296875,4.60742187 4.56445313,5.69921875 3.83984375,6.74414062 C3.81054688,6.78710937 3.77539063,6.82421875 3.734375,6.85546875 C3.17382813,7.2890625 2.59960938,7.47460937 2.06835938,7.47460937 C2.03710938,7.47460937 2.00585938,7.47460937 1.97460938,7.47265625 L1.95507813,7.47265625 C1.734375,7.47265625 1.54296875,7.63085937 1.49023438,7.85546875 C1.33203125,8.54296875 1.24609375,9.26171875 1.24609375,10 C1.24609375,10.6601562 1.31445313,11.3046875 1.44140625,11.9257812 C1.48828125,12.1542969 1.68359375,12.3144531 1.90820313,12.3144531 L1.91210938,12.3144531 C3.20703125,12.3144531 4.25585938,13.4082031 4.25585938,14.7558594 C4.25585938,15.21875 4.1328125,15.6503906 3.91796875,16.0195312 C3.80078125,16.2207031 3.8359375,16.4785156 4,16.640625 C4.93554688,17.5566406 6.0625,18.2617187 7.31445312,18.6816406 C7.36328125,18.6972656 7.41210938,18.7050781 7.46289062,18.7050781 C7.63085938,18.7050781 7.79101562,18.6132812 7.87695312,18.4550781 C8.27929688,17.7167969 9.04101563,17.2207031 9.9140625,17.2207031 C10.8027344,17.2207031 11.5742188,17.734375 11.9726562,18.4941406 C12.0585937,18.65625 12.2207031,18.75 12.390625,18.75 C12.4375,18.75 12.484375,18.7421875 12.5292969,18.7285156 C13.765625,18.3398437 14.8867188,17.6738281 15.8242187,16.7988281 C15.9941406,16.640625 16.03125,16.3769531 15.9140625,16.171875 C15.4628906,15.3730469 15.4375,14.28125 16.1582031,13.2363281 C16.1875,13.1933594 16.2226562,13.15625 16.2636719,13.125 C16.828125,12.6835937 17.4042969,12.4960937 17.9375,12.4960937 C17.96875,12.4960937 17.9980469,12.4960937 18.0292969,12.4980469 L18.046875,12.4980469 C18.2675781,12.4980469 18.4570312,12.3378906 18.5097656,12.1132812 C18.6640625,11.4355469 18.7460938,10.7265625 18.7460938,10 C18.7460938,9.29296875 18.6679688,8.60351562 18.5214844,7.94140625 C18.4707031,7.71484375 18.2773438,7.5546875 18.0546875,7.5546875 L18.0039063,7.5546875 C17.4746094,7.5546875 16.9042969,7.37109375 16.3476563,6.94921875 C16.3066406,6.91796875 16.2695313,6.87890625 16.2382813,6.8359375 C15.5039063,5.78515625 15.5273438,4.6875 15.9785156,3.8828125 C16.09375,3.67773437 16.0566406,3.41992187 15.8886719,3.25976562 C14.9394531,2.35742187 13.7988281,1.671875 12.5390625,1.2734375 C12.4960938,1.2578125 12.4492188,1.25 12.4023438,1.25 L12.4023437,1.25 Z M10,8.20117188 C10.9902344,8.20117188 11.796875,9.0078125 11.796875,9.99804688 C11.796875,10.9882812 10.9902344,11.7949219 10,11.7949219 C9.00976562,11.7949219 8.203125,10.9882813 8.203125,9.99804688 C8.203125,9.0078125 9.00976562,8.20117188 10,8.20117188 M10,6.79492188 C8.23046875,6.79492188 6.796875,8.22851562 6.796875,9.99804688 C6.796875,11.7675781 8.23046875,13.2011719 10,13.2011719 C11.7695312,13.2011719 13.203125,11.7675781 13.203125,9.99804688 C13.203125,8.22851562 11.7695312,6.79492188 10,6.79492188 Z" id="形状"></path>
                    </g>
                </g>
            </g>
        </g>
    </g>
</svg>