<?xml version="1.0" encoding="UTF-8"?>
<svg width="20px" height="20px" viewBox="0 0 20 20" version="1.1" xmlns="http://www.w3.org/2000/svg" xmlns:xlink="http://www.w3.org/1999/xlink">
    <title>侧导航_工作台</title>
    <g id="Page-1" stroke="none" stroke-width="1" fill-rule="evenodd">
        <g id="A-01-导航和框架" transform="translate(-16.000000, -110.000000)"  fill-rule="nonzero">
            <g id="左导航" transform="translate(0.000000, 48.000000)">
                <g id="态势总览" transform="translate(0.000000, 48.000000)">
                    <g id="侧导航_工作台" transform="translate(16.000000, 14.000000)">
                        <rect id="矩形" opacity="0" x="0" y="0" width="20" height="20"></rect>
                        <path d="M8.33400001,1.67 L2.50300001,1.67 C2.04294681,1.67 1.67,2.04294681 1.67,2.50300001 L1.67,8.33400001 C1.67,8.7940532 2.04294681,9.16699999 2.50300001,9.16699999 L8.33400001,9.16699999 C8.79405319,9.16699999 9.16699999,8.79405319 9.16699999,8.33400001 L9.16699999,2.50300001 C9.16699999,2.04294681 8.7940532,1.67 8.33400001,1.67 L8.33400001,1.67 Z M7.501,3.33600001 L7.501,7.501 L3.33600001,7.501 L3.33600001,3.33600001 L7.501,3.33600001 Z M8.33400001,10.833 L2.50300001,10.833 C2.04294681,10.833 1.67,11.2059468 1.67,11.666 L1.67,17.497 C1.67,17.9570532 2.04294681,18.33 2.50300001,18.33 L8.33400001,18.33 C8.7940532,18.33 9.16699999,17.9570532 9.16699999,17.497 L9.16699999,11.666 C9.16699999,11.2059468 8.79405319,10.833 8.33400001,10.833 L8.33400001,10.833 Z M7.501,12.499 L7.501,16.664 L3.33600001,16.664 L3.33600001,12.499 L7.501,12.499 Z M17.497,1.67 L11.666,1.67 C11.2059468,1.67 10.833,2.04294681 10.833,2.50300001 L10.833,8.33400001 C10.833,8.79405319 11.2059468,9.16699999 11.666,9.16699999 L17.497,9.16699999 C17.9570532,9.16699999 18.33,8.7940532 18.33,8.33400001 L18.33,2.50300001 C18.33,2.04294681 17.9570532,1.67 17.497,1.67 L17.497,1.67 Z M16.664,3.33600001 L16.664,7.501 L12.499,7.501 L12.499,3.33600001 L16.664,3.33600001 Z M17.497,10.833 L11.666,10.833 C11.2059468,10.833 10.833,11.2059468 10.833,11.666 L10.833,17.497 C10.833,17.9570532 11.2059468,18.33 11.666,18.33 L17.497,18.33 C17.9570532,18.33 18.33,17.9570532 18.33,17.497 L18.33,11.666 C18.33,11.2059468 17.9570532,10.833 17.497,10.833 L17.497,10.833 Z M16.664,12.499 L16.664,16.664 L12.499,16.664 L12.499,12.499 L16.664,12.499 Z" id="Shape"></path>
                    </g>
                </g>
            </g>
        </g>
    </g>
</svg>